<?xml version="1.0" encoding="utf-8"?>
<svg id="master-artboard" xmlns="http://www.w3.org/2000/svg" viewBox="0 0 800 800" width="800px" height="800px"><defs><style id="ee-google-fonts">@import url(https://fonts.googleapis.com/css?family=Kite+One:400);</style></defs><rect id="ee-background" x="0" y="0" width="800" height="800" style="fill: white; fill-opacity: 0; pointer-events: none;"/><path d="M 261.3201904296875 315 L 260.9302062988281 313.1700134277344 L 260.8402099609375 313.1700134277344 C 260.2001953125 313.9766540527344 259.5602111816406 314.5233459472656 258.9201965332031 314.80999755859375 C 258.286865234375 315.0899963378906 257.4935302734375 315.2300109863281 256.5401916503906 315.2300109863281 C 255.26686096191406 315.2300109863281 254.27020263671875 314.9033203125 253.55020141601562 314.25 C 252.8235321044922 313.5966796875 252.460205078125 312.663330078125 252.460205078125 311.45001220703125 C 252.460205078125 308.8566589355469 254.53353881835938 307.4966735839844 258.6802062988281 307.3699951171875 L 260.8601989746094 307.29998779296875 L 260.8601989746094 306.5 C 260.8601989746094 305.49334716796875 260.6435241699219 304.75 260.210205078125 304.2699890136719 C 259.77685546875 303.7900085449219 259.0835266113281 303.54998779296875 258.13018798828125 303.54998779296875 C 257.06353759765625 303.54998779296875 255.85353088378906 303.8800048828125 254.5001983642578 304.5400085449219 L 253.9001922607422 303.04998779296875 C 254.53353881835938 302.7033386230469 255.22686767578125 302.4333190917969 255.98019409179688 302.239990234375 C 256.7335205078125 302.0466613769531 257.4902038574219 301.95001220703125 258.2502136230469 301.95001220703125 C 259.7835388183594 301.95001220703125 260.9168701171875 302.28668212890625 261.65020751953125 302.9599914550781 C 262.39019775390625 303.6400146484375 262.76019287109375 304.7300109863281 262.76019287109375 306.2300109863281 L 262.76019287109375 315 L 261.3201904296875 315 M 256.9302062988281 313.6300048828125 C 258.1368713378906 313.6300048828125 259.08685302734375 313.2966613769531 259.78021240234375 312.6300048828125 C 260.4735412597656 311.9700012207031 260.8201904296875 311.0400085449219 260.8201904296875 309.8399963378906 L 260.8201904296875 308.67999267578125 L 258.8702087402344 308.7699890136719 C 257.32354736328125 308.8233337402344 256.210205078125 309.0633239746094 255.5301971435547 309.489990234375 C 254.84353637695312 309.9100036621094 254.5001983642578 310.57000732421875 254.5001983642578 311.4700012207031 C 254.5001983642578 312.1766662597656 254.71353149414062 312.7133483886719 255.14019775390625 313.0799865722656 C 255.56686401367188 313.4466552734375 256.1635437011719 313.6300048828125 256.9302062988281 313.6300048828125 ZM 268.5967102050781 302.1600036621094 L 268.5967102050781 310.489990234375 C 268.5967102050781 311.5366516113281 268.8367004394531 312.3166809082031 269.3166809082031 312.8299865722656 C 269.7900390625 313.3500061035156 270.5333557128906 313.6099853515625 271.54669189453125 313.6099853515625 C 272.89337158203125 313.6099853515625 273.876708984375 313.239990234375 274.4967041015625 312.5 C 275.11669921875 311.76666259765625 275.42669677734375 310.57000732421875 275.42669677734375 308.9100036621094 L 275.42669677734375 302.1600036621094 L 277.376708984375 302.1600036621094 L 277.376708984375 315 L 275.7666931152344 315 L 275.4866943359375 313.2799987792969 L 275.3866882324219 313.2799987792969 C 274.9866943359375 313.913330078125 274.433349609375 314.39666748046875 273.7266845703125 314.7300109863281 C 273.02001953125 315.0633239746094 272.2133483886719 315.2300109863281 271.30670166015625 315.2300109863281 C 269.7400207519531 315.2300109863281 268.5700378417969 314.8599853515625 267.79669189453125 314.1199951171875 C 267.0166931152344 313.3800048828125 266.626708984375 312.1933288574219 266.626708984375 310.55999755859375 L 266.626708984375 302.1600036621094 L 268.5967102050781 302.1600036621094 ZM 289.7867126464844 311.5 C 289.7867126464844 312.6933288574219 289.34002685546875 313.61334228515625 288.44671630859375 314.260009765625 C 287.5600280761719 314.90667724609375 286.3100280761719 315.2300109863281 284.69671630859375 315.2300109863281 C 282.9967041015625 315.2300109863281 281.6700439453125 314.9633483886719 280.7167053222656 314.42999267578125 L 280.7167053222656 312.6199951171875 C 281.3300476074219 312.9333190917969 281.99005126953125 313.17999267578125 282.69671630859375 313.3599853515625 C 283.40338134765625 313.5400085449219 284.0867004394531 313.6300048828125 284.7467041015625 313.6300048828125 C 285.7600402832031 313.6300048828125 286.5400390625 313.4666748046875 287.0867004394531 313.1400146484375 C 287.63336181640625 312.82000732421875 287.9067077636719 312.32666015625 287.9067077636719 311.6600036621094 C 287.9067077636719 311.1600036621094 287.6900329589844 310.73333740234375 287.2567138671875 310.3800048828125 C 286.8233642578125 310.0199890136719 285.98004150390625 309.6000061035156 284.7267150878906 309.1199951171875 C 283.5267028808594 308.67333984375 282.67669677734375 308.2833251953125 282.17669677734375 307.95001220703125 C 281.6700439453125 307.6166687011719 281.2933654785156 307.239990234375 281.04669189453125 306.82000732421875 C 280.800048828125 306.3999938964844 280.67669677734375 305.89666748046875 280.67669677734375 305.30999755859375 C 280.67669677734375 304.2633361816406 281.1033630371094 303.4366760253906 281.9566955566406 302.8299865722656 C 282.8100280761719 302.22332763671875 283.9767150878906 301.9200134277344 285.4566955566406 301.9200134277344 C 286.8433837890625 301.9200134277344 288.19671630859375 302.2033386230469 289.5166931152344 302.7699890136719 L 288.82672119140625 304.3500061035156 C 287.53338623046875 303.8166809082031 286.3633728027344 303.54998779296875 285.31671142578125 303.54998779296875 C 284.3966979980469 303.54998779296875 283.703369140625 303.6933288574219 283.2366943359375 303.9800109863281 C 282.76336669921875 304.2733459472656 282.5267028808594 304.67333984375 282.5267028808594 305.17999267578125 C 282.5267028808594 305.52667236328125 282.61669921875 305.82000732421875 282.79669189453125 306.05999755859375 C 282.97003173828125 306.29998779296875 283.2533874511719 306.5299987792969 283.6466979980469 306.75 C 284.03338623046875 306.9700012207031 284.78338623046875 307.28668212890625 285.8966979980469 307.70001220703125 C 287.4167175292969 308.2533264160156 288.443359375 308.80999755859375 288.9767150878906 309.3699951171875 C 289.5166931152344 309.9366760253906 289.7867126464844 310.64666748046875 289.7867126464844 311.5 ZM 298.37646484375 315.2300109863281 C 296.4764709472656 315.2300109863281 294.9764709472656 314.6533203125 293.87646484375 313.5 C 292.78314208984375 312.3466796875 292.2364807128906 310.739990234375 292.2364807128906 308.67999267578125 C 292.2364807128906 306.61334228515625 292.7464599609375 304.9700012207031 293.7664794921875 303.75 C 294.7864685058594 302.5299987792969 296.15313720703125 301.9200134277344 297.8664855957031 301.9200134277344 C 299.47979736328125 301.9200134277344 300.7531433105469 302.45001220703125 301.68646240234375 303.510009765625 C 302.62646484375 304.57000732421875 303.0964660644531 305.9666748046875 303.0964660644531 307.70001220703125 L 303.0964660644531 308.92999267578125 L 294.2464599609375 308.92999267578125 C 294.2864685058594 310.4366760253906 294.6697998046875 311.5799865722656 295.396484375 312.3599853515625 C 296.1164855957031 313.14666748046875 297.1331481933594 313.5400085449219 298.44647216796875 313.5400085449219 C 299.82647705078125 313.5400085449219 301.1931457519531 313.25 302.5464782714844 312.6700134277344 L 302.5464782714844 314.3999938964844 C 301.85980224609375 314.70001220703125 301.2098083496094 314.913330078125 300.5964660644531 315.0400085449219 C 299.983154296875 315.1666564941406 299.2431335449219 315.2300109863281 298.37646484375 315.2300109863281 M 297.8464660644531 303.54998779296875 C 296.8131408691406 303.54998779296875 295.98980712890625 303.88665771484375 295.37646484375 304.55999755859375 C 294.7631530761719 305.23333740234375 294.40313720703125 306.163330078125 294.2964782714844 307.3500061035156 L 301.0164794921875 307.3500061035156 C 301.0164794921875 306.1233215332031 300.73980712890625 305.1833190917969 300.18646240234375 304.5299987792969 C 299.6398010253906 303.8766784667969 298.85980224609375 303.54998779296875 297.8464660644531 303.54998779296875 Z" transform="matrix(12.53342056274414, 0, 0, 12.53342056274414, -3017.546142578125, -3740.647705078125)" style="fill: rgb(51, 51, 51); white-space: pre; color: rgb(51, 51, 51);"/><path d="M 149.9961395263672 263.57000732421875 C 149.92947387695312 264.0833435058594 149.60279846191406 264.3399963378906 149.01614379882812 264.3399963378906 C 148.43614196777344 264.3399963378906 148.14613342285156 264.1400146484375 148.14613342285156 263.739990234375 C 148.14613342285156 263.7066650390625 148.9528045654297 257.1300048828125 150.56613159179688 244.00999450683594 C 150.61280822753906 243.69000244140625 150.85279846191406 243.49667358398438 151.2861328125 243.42999267578125 C 153.44613647460938 243.19000244140625 154.95947265625 243.07000732421875 155.82614135742188 243.07000732421875 C 157.7594757080078 243.07000732421875 159.296142578125 243.52000427246094 160.43614196777344 244.4199981689453 C 161.56947326660156 245.31333923339844 162.13613891601562 246.60665893554688 162.13613891601562 248.3000030517578 C 162.13613891601562 249.5 161.85279846191406 250.55667114257812 161.2861328125 251.47000122070312 C 160.71946716308594 252.38333129882812 159.94613647460938 253.10333251953125 158.9661407470703 253.6300048828125 C 157.046142578125 254.6699981689453 154.7028045654297 255.19000244140625 151.93614196777344 255.19000244140625 C 151.52281188964844 255.19000244140625 151.20947265625 255.18333435058594 150.9961395263672 255.1699981689453 L 149.9961395263672 263.57000732421875 M 160.19613647460938 248.3000030517578 C 160.19613647460938 247.086669921875 159.80613708496094 246.163330078125 159.02613830566406 245.52999877929688 C 158.2528076171875 244.89666748046875 157.2427978515625 244.5800018310547 155.9961395263672 244.5800018310547 C 154.7427978515625 244.5800018310547 153.5094757080078 244.66000366210938 152.296142578125 244.82000732421875 L 151.23614501953125 253.50999450683594 C 157.20947265625 253.50999450683594 160.19613647460938 251.77333068847656 160.19613647460938 248.3000030517578 Z" transform="matrix(20.605928421020508, 0, 0, 20.605928421020508, -3022.916259765625, -5396.9765625)" style="fill: rgb(255, 0, 98); white-space: pre; color: rgb(51, 51, 51);"/><g transform="matrix(1.1572242975234985, 0.8298762440681458, -0.8298762440681458, 1.1572242975234985, -304.7830816763104, -1071.4574116091094)"><g transform="matrix(1, 0, 0, 1, 0, 0)"><path class="st1" d="M758,754.6c-79.7,0-144.3-64.6-144.3-144.3c0-27.4,7.6-53,20.9-74.8c-56.9,19.3-97.9,73.2-97.9,136.6&#10;&#9;&#9;&#9;c0,79.7,64.6,144.3,144.3,144.3c52.3,0,98.1-27.8,123.4-69.5C789.8,751.9,774.2,754.6,758,754.6z" style="fill: rgb(251, 209, 8);" transform="matrix(1, 0, 0, 1, 0, 0)"/><path d="M 651.599976 743.799988 A 26 26 0 0 1 625.599976 769.799988 A 26 26 0 0 1 599.599976 743.799988 A 26 26 0 0 1 625.599976 717.799988 A 26 26 0 0 1 651.599976 743.799988 Z" class="st4" style="fill: rgb(236, 182, 30);" transform="matrix(1, 0, 0, 1, 0, 0)"/><path d="M 672.200025 778.5 A 10.8 10.8 0 0 1 661.400024 789.3 A 10.8 10.8 0 0 1 650.600024 778.5 A 10.8 10.8 0 0 1 661.400024 767.7 A 10.8 10.8 0 0 1 672.200025 778.5 Z" class="st4" style="fill: rgb(236, 182, 30);" transform="matrix(1, 0, 0, 1, 0, 0)"/><path d="M 740.6 779.599976 A 7.6 7.6 0 0 1 733 787.199975 A 7.6 7.6 0 0 1 725.4 779.599976 A 7.6 7.6 0 0 1 733 771.999976 A 7.6 7.6 0 0 1 740.6 779.599976 Z" class="st4" style="fill: rgb(236, 182, 30);" transform="matrix(1, 0, 0, 1, 0, 0)"/><path d="M 598.500025 614.700012 A 14.1 14.1 0 0 1 584.400024 628.800013 A 14.1 14.1 0 0 1 570.300024 614.700012 A 14.1 14.1 0 0 1 584.400024 600.600012 A 14.1 14.1 0 0 1 598.500025 614.700012 Z" class="st4" style="fill: rgb(236, 182, 30);" transform="matrix(1, 0, 0, 1, 0, 0)"/><path class="st1" d="M694.1,621.6l5.4,16.7c0.8,2.4,3,4,5.5,4h17.6c5.6,0,8,7.2,3.4,10.5l-14.2,10.3c-2,1.5-2.9,4.1-2.1,6.5&#10;&#9;&#9;&#9;l5.4,16.7c1.7,5.4-4.4,9.8-8.9,6.5L692,682.5c-2-1.5-4.8-1.5-6.8,0l-14.2,10.3c-4.6,3.3-10.7-1.1-8.9-6.5l5.4-16.7&#10;&#9;&#9;&#9;c0.8-2.4-0.1-5-2.1-6.5l-14.2-10.3c-4.6-3.3-2.2-10.5,3.4-10.5h17.6c2.5,0,4.7-1.6,5.5-4l5.4-16.7&#10;&#9;&#9;&#9;C684.8,616.2,692.4,616.2,694.1,621.6z" style="fill: rgb(251, 209, 8);" transform="matrix(1, 0, 0, 1, 0, 0)"/><path class="st1" d="M754.1,581.5l4,12.4c0.6,1.8,2.2,3,4.1,3h13.1c4.2,0,5.9,5.4,2.5,7.8l-10.6,7.7c-1.5,1.1-2.2,3.1-1.6,4.8&#10;&#9;&#9;&#9;l4,12.4c1.3,4-3.3,7.3-6.7,4.8l-10.6-7.7c-1.5-1.1-3.6-1.1-5.1,0l-10.6,7.7c-3.4,2.5-8-0.9-6.7-4.8l4-12.4&#10;&#9;&#9;&#9;c0.6-1.8-0.1-3.7-1.6-4.8l-10.6-7.7c-3.4-2.5-1.6-7.8,2.5-7.8h13.1c1.9,0,3.5-1.2,4.1-3l4-12.4&#10;&#9;&#9;&#9;C747.2,577.5,752.8,577.5,754.1,581.5z" style="fill: rgb(251, 209, 8);" transform="matrix(1, 0, 0, 1, 0, 0)"/></g></g></svg>