<?xml version="1.0" encoding="utf-8"?>
<svg viewBox="0 0 500 500" xmlns="http://www.w3.org/2000/svg" xmlns:xlink="http://www.w3.org/1999/xlink">
  <defs>
    <pattern id="pattern-0-0" patternTransform="matrix(1, 0, 0, 1, 225.591827, 187.043966)" xlink:href="#pattern-0"/>
    <pattern x="0" y="0" width="25" height="25" patternUnits="userSpaceOnUse" viewBox="0 0 100 100" id="pattern-0">
      <rect x="0" y="0" width="50" height="100" style="fill: black;"/>
    </pattern>
    <pattern id="pattern-1" patternTransform="matrix(1, 0, 0, 1, 225.591827, 187.043966)" xlink:href="#pattern-0"/>
  </defs>
  <path d="M 202.233 204.942 Q 201.796 204.942 201.683 204.748 Q 201.569 204.553 201.634 204.197 Q 201.877 202.998 202.055 201.589 Q 202.233 200.179 202.233 198.754 Q 202.233 197.782 202.16 197.02 Q 202.088 196.259 201.683 195.595 Q 201.618 195.498 201.577 195.409 Q 201.537 195.319 201.537 195.255 Q 201.537 195.044 201.772 194.842 Q 202.007 194.639 202.331 194.493 Q 202.655 194.347 202.946 194.347 Q 203.335 194.347 203.505 194.607 Q 203.675 194.866 203.708 195.247 Q 203.74 195.627 203.74 196.016 Q 203.74 196.405 203.699 196.883 Q 203.659 197.361 203.61 197.928 Q 203.529 198.673 203.448 199.556 Q 203.367 200.439 203.367 201.394 Q 203.367 202.48 203.448 203.168 Q 203.529 203.857 203.562 204.067 Q 203.61 204.343 203.4 204.537 Q 203.189 204.732 202.865 204.837 Q 202.541 204.942 202.233 204.942 Z M 208.406 204.91 Q 207.758 204.91 207.166 204.586 Q 206.575 204.262 206.057 203.743 Q 205.538 203.225 205.125 202.609 Q 204.712 201.994 204.412 201.394 Q 204.113 200.795 203.967 200.341 Q 203.821 199.904 203.821 199.58 Q 203.821 199.224 204.08 198.721 Q 204.291 198.333 204.696 197.782 Q 205.101 197.231 205.627 196.632 Q 206.154 196.032 206.729 195.514 Q 207.304 194.995 207.887 194.671 Q 208.47 194.347 208.973 194.347 Q 209.426 194.347 209.629 194.615 Q 209.831 194.882 209.831 195.222 Q 209.831 195.498 209.718 195.805 Q 209.604 196.113 209.41 196.324 Q 209.216 196.534 208.956 196.534 Q 208.794 196.534 208.657 196.494 Q 208.519 196.453 208.308 196.453 Q 208.098 196.453 207.814 196.534 Q 207.531 196.615 207.191 196.842 Q 206.915 197.037 206.51 197.417 Q 206.105 197.798 205.684 198.284 Q 205.263 198.77 204.906 199.321 Q 205.133 199.872 205.522 200.431 Q 205.911 200.989 206.332 201.475 Q 207.093 202.35 207.798 202.755 Q 208.503 203.16 209.523 203.16 Q 209.734 203.16 209.807 203.257 Q 209.88 203.355 209.88 203.565 Q 209.88 204.035 209.531 204.472 Q 209.183 204.91 208.406 204.91 Z" transform="matrix(5.71404, 0.000048, -0.000089, 10.308187, -1117.621582, -1803.676514)" style="fill: rgb(255, 3, 3); fill-rule: evenodd; paint-order: fill; text-transform: capitalize; white-space: pre;"/>
  <path d="M 213.07 204.975 Q 211.953 204.975 211.28 204.367 Q 210.608 203.76 210.608 202.577 Q 210.608 202.026 210.762 201.508 Q 210.916 200.989 211.175 200.536 Q 210.916 200.698 210.786 200.698 Q 210.592 200.698 210.519 200.479 Q 210.446 200.26 210.446 200.05 Q 210.446 199.677 210.6 199.459 Q 210.754 199.24 210.9 199.126 Q 211.24 198.835 211.969 198.487 Q 212.698 198.138 213.718 198.138 Q 215.112 198.138 215.881 198.916 Q 216.651 199.693 216.651 201.087 Q 216.651 202.172 216.197 203.055 Q 215.743 203.938 214.941 204.456 Q 214.14 204.975 213.07 204.975 Z M 213.573 203.322 Q 214.383 203.322 214.941 202.812 Q 215.5 202.302 215.5 201.459 Q 215.5 200.584 214.933 200.212 Q 214.366 199.839 213.621 199.839 Q 213.281 199.839 213.006 199.904 Q 212.73 199.969 212.487 200.066 Q 212.26 200.39 212.082 200.795 Q 211.904 201.2 211.904 201.686 Q 211.904 202.496 212.39 202.909 Q 212.876 203.322 213.573 203.322 Z" transform="matrix(5.71404, 0.000048, -0.000089, 10.308187, -1117.621582, -1803.676514)" style="fill: rgb(255, 3, 3); fill-rule: evenodd; paint-order: fill; text-transform: capitalize; white-space: pre;"/>
  <path d="M 220.457 204.975 Q 219.34 204.975 218.667 204.367 Q 217.995 203.76 217.995 202.577 Q 217.995 202.026 218.149 201.508 Q 218.303 200.989 218.562 200.536 Q 218.303 200.698 218.173 200.698 Q 217.979 200.698 217.906 200.479 Q 217.833 200.26 217.833 200.05 Q 217.833 199.677 217.987 199.459 Q 218.141 199.24 218.287 199.126 Q 218.627 198.835 219.356 198.487 Q 220.085 198.138 221.105 198.138 Q 222.499 198.138 223.268 198.916 Q 224.038 199.693 224.038 201.087 Q 224.038 202.172 223.584 203.055 Q 223.13 203.938 222.328 204.456 Q 221.527 204.975 220.457 204.975 Z M 220.96 203.322 Q 221.77 203.322 222.328 202.812 Q 222.887 202.302 222.887 201.459 Q 222.887 200.584 222.32 200.212 Q 221.753 199.839 221.008 199.839 Q 220.668 199.839 220.393 199.904 Q 220.117 199.969 219.874 200.066 Q 219.647 200.39 219.469 200.795 Q 219.291 201.2 219.291 201.686 Q 219.291 202.496 219.777 202.909 Q 220.263 203.322 220.96 203.322 Z" transform="matrix(5.71404, 0.000048, -0.000089, 10.308187, -1117.621582, -1803.676514)" style="fill: rgb(255, 3, 3); fill-rule: evenodd; paint-order: fill; text-transform: capitalize; white-space: pre;"/>
  <path d="M 226.159 204.942 Q 225.722 204.942 225.609 204.748 Q 225.495 204.553 225.56 204.197 Q 225.803 202.998 225.981 201.589 Q 226.159 200.179 226.159 198.754 Q 226.159 197.782 226.087 197.02 Q 226.014 196.259 225.609 195.595 Q 225.544 195.498 225.503 195.409 Q 225.463 195.319 225.463 195.255 Q 225.463 195.044 225.698 194.842 Q 225.933 194.639 226.257 194.493 Q 226.581 194.347 226.872 194.347 Q 227.261 194.347 227.431 194.607 Q 227.601 194.866 227.634 195.247 Q 227.666 195.627 227.666 196.016 Q 227.666 196.405 227.626 196.883 Q 227.585 197.361 227.536 197.928 Q 227.455 198.673 227.374 199.556 Q 227.293 200.439 227.293 201.394 Q 227.293 202.48 227.374 203.168 Q 227.455 203.857 227.488 204.067 Q 227.536 204.343 227.326 204.537 Q 227.115 204.732 226.791 204.837 Q 226.467 204.942 226.159 204.942 Z M 232.332 204.91 Q 231.684 204.91 231.092 204.586 Q 230.501 204.262 229.983 203.743 Q 229.464 203.225 229.051 202.609 Q 228.638 201.994 228.338 201.394 Q 228.039 200.795 227.893 200.341 Q 227.747 199.904 227.747 199.58 Q 227.747 199.224 228.006 198.721 Q 228.217 198.333 228.622 197.782 Q 229.027 197.231 229.553 196.632 Q 230.08 196.032 230.655 195.514 Q 231.23 194.995 231.813 194.671 Q 232.396 194.347 232.899 194.347 Q 233.352 194.347 233.555 194.615 Q 233.757 194.882 233.757 195.222 Q 233.757 195.498 233.644 195.805 Q 233.53 196.113 233.336 196.324 Q 233.142 196.534 232.882 196.534 Q 232.72 196.534 232.583 196.494 Q 232.445 196.453 232.234 196.453 Q 232.024 196.453 231.74 196.534 Q 231.457 196.615 231.117 196.842 Q 230.841 197.037 230.436 197.417 Q 230.031 197.798 229.61 198.284 Q 229.189 198.77 228.832 199.321 Q 229.059 199.872 229.448 200.431 Q 229.837 200.989 230.258 201.475 Q 231.019 202.35 231.724 202.755 Q 232.429 203.16 233.449 203.16 Q 233.66 203.16 233.733 203.257 Q 233.806 203.355 233.806 203.565 Q 233.806 204.035 233.458 204.472 Q 233.109 204.91 232.332 204.91 Z" transform="matrix(5.71404, 0.000048, -0.000089, 10.308187, -1117.621582, -1803.676514)" style="fill: rgb(255, 3, 3); fill-rule: evenodd; paint-order: fill; text-transform: capitalize; white-space: pre;"/>
  <path d="M 235.652 196.713 Q 235.199 196.696 234.923 196.437 Q 234.648 196.178 234.648 195.708 Q 234.664 195.206 234.988 194.89 Q 235.312 194.574 235.814 194.59 Q 236.284 194.607 236.551 194.866 Q 236.819 195.125 236.803 195.595 Q 236.786 196.081 236.479 196.397 Q 236.171 196.713 235.652 196.713 Z M 235.669 204.926 Q 235.183 204.926 234.907 204.659 Q 234.632 204.391 234.632 203.743 Q 234.632 203.371 234.705 203.014 Q 234.778 202.658 234.875 202.318 Q 234.988 201.961 235.061 201.589 Q 235.134 201.216 235.134 200.795 Q 235.134 200.503 235.053 200.236 Q 234.972 199.969 234.697 199.839 Q 234.486 199.726 234.332 199.604 Q 234.178 199.483 234.178 199.288 Q 234.178 199.062 234.389 198.802 Q 234.599 198.543 234.948 198.357 Q 235.296 198.171 235.669 198.171 Q 236.074 198.171 236.26 198.381 Q 236.446 198.592 236.511 198.916 Q 236.576 199.24 236.576 199.58 Q 236.576 200.098 236.495 200.593 Q 236.414 201.087 236.333 201.508 Q 236.268 201.816 236.236 202.075 Q 236.203 202.334 236.203 202.561 Q 236.203 202.966 236.398 203.168 Q 236.592 203.371 236.948 203.549 Q 237.094 203.63 237.094 203.792 Q 237.094 203.922 236.965 204.197 Q 236.835 204.472 236.519 204.699 Q 236.203 204.926 235.669 204.926 Z" transform="matrix(5.71404, 0.000048, -0.000089, 10.308187, -1117.621582, -1803.676514)" style="fill: rgb(255, 3, 3); fill-rule: evenodd; paint-order: fill; text-transform: capitalize; white-space: pre;"/>
  <path d="M 240.594 204.991 Q 240.156 204.991 239.84 204.724 Q 239.524 204.456 239.46 203.727 Q 239.427 203.176 239.322 202.512 Q 239.217 201.848 239.055 201.249 Q 238.893 200.649 238.682 200.309 Q 238.569 200.131 238.431 200.042 Q 238.293 199.953 238.018 199.92 Q 237.84 199.904 237.775 199.807 Q 237.71 199.71 237.71 199.499 Q 237.71 198.835 238.074 198.519 Q 238.439 198.203 238.909 198.203 Q 239.395 198.203 239.719 198.519 Q 240.043 198.835 240.221 199.353 Q 240.399 199.872 240.472 200.495 Q 240.545 201.119 240.545 201.751 Q 240.545 202.01 240.537 202.294 Q 240.529 202.577 240.529 202.771 Q 240.529 202.95 240.602 203.047 Q 240.675 203.144 240.885 203.144 Q 241.144 203.144 241.485 202.99 Q 241.825 202.836 242.157 202.545 Q 242.489 202.253 242.708 201.856 Q 242.926 201.459 242.926 200.973 Q 242.926 200.698 242.837 200.39 Q 242.748 200.082 242.554 199.872 Q 242.359 199.661 242.27 199.54 Q 242.181 199.418 242.181 199.256 Q 242.181 198.964 242.448 198.721 Q 242.716 198.478 243.08 198.333 Q 243.445 198.187 243.72 198.187 Q 244.19 198.187 244.32 198.576 Q 244.449 198.964 244.449 199.434 Q 244.449 200.325 244.125 201.297 Q 243.801 202.269 243.25 203.112 Q 242.7 203.954 242.011 204.472 Q 241.323 204.991 240.594 204.991 Z" transform="matrix(5.71404, 0.000048, -0.000089, 10.308187, -1117.621582, -1803.676514)" style="fill: rgb(255, 3, 3); fill-rule: evenodd; paint-order: fill; text-transform: capitalize; white-space: pre;"/>
  <path d="M 248.013 204.975 Q 246.782 204.975 246.093 204.27 Q 245.405 203.565 245.405 202.302 Q 245.405 201.151 245.907 200.212 Q 246.409 199.272 247.26 198.713 Q 248.11 198.154 249.131 198.154 Q 250.103 198.154 250.686 198.632 Q 251.269 199.11 251.269 199.904 Q 251.269 200.536 250.88 201.07 Q 250.491 201.605 249.843 201.921 Q 249.195 202.237 248.402 202.237 Q 247.43 202.237 246.814 201.799 Q 246.83 202.545 247.324 202.998 Q 247.818 203.452 248.596 203.452 Q 249.066 203.452 249.56 203.282 Q 250.054 203.112 250.41 202.82 Q 250.637 202.626 250.832 202.626 Q 250.994 202.626 251.099 202.731 Q 251.204 202.836 251.204 202.998 Q 251.204 203.355 250.589 203.938 Q 249.503 204.975 248.013 204.975 Z M 248.256 201.168 Q 248.839 201.168 249.228 200.925 Q 249.617 200.682 249.617 200.309 Q 249.617 200.001 249.357 199.831 Q 249.098 199.661 248.645 199.661 Q 248.045 199.661 247.6 199.977 Q 247.154 200.293 246.96 200.86 Q 247.187 201.006 247.543 201.087 Q 247.899 201.168 248.256 201.168 Z" transform="matrix(5.71404, 0.000048, -0.000089, 10.308187, -1117.621582, -1803.676514)" style="fill: rgb(255, 3, 3); fill-rule: evenodd; paint-order: fill; text-transform: capitalize; white-space: pre;"/>
  <path d="M 253.488 204.942 Q 253.229 204.942 253.075 204.853 Q 252.921 204.764 252.97 204.553 Q 253.148 203.857 253.269 203.136 Q 253.391 202.415 253.391 201.751 Q 253.391 200.892 253.286 200.495 Q 253.18 200.098 253.002 199.945 Q 252.824 199.791 252.565 199.71 Q 252.451 199.661 252.362 199.58 Q 252.273 199.499 252.273 199.353 Q 252.273 199.126 252.451 198.851 Q 252.63 198.576 252.954 198.373 Q 253.278 198.171 253.699 198.171 Q 254.25 198.171 254.468 198.551 Q 254.687 198.932 254.687 199.548 Q 254.979 198.9 255.408 198.519 Q 255.837 198.138 256.485 198.138 Q 256.923 198.138 257.214 198.333 Q 257.506 198.527 257.506 198.964 Q 257.506 199.402 257.222 199.783 Q 256.939 200.163 256.647 200.163 Q 256.599 200.163 256.534 200.147 Q 256.469 200.131 256.42 200.066 Q 256.21 199.807 255.902 199.807 Q 255.432 199.807 255.076 200.422 Q 254.719 201.038 254.687 202.123 Q 254.703 202.528 254.711 202.95 Q 254.719 203.371 254.719 203.565 Q 254.719 204.165 254.387 204.553 Q 254.055 204.942 253.488 204.942 Z" transform="matrix(5.71404, 0.000048, -0.000089, 10.308187, -1117.621582, -1803.676514)" style="fill: rgb(255, 3, 3); fill-rule: evenodd; paint-order: fill; text-transform: capitalize; white-space: pre;"/>
  <path d="M 260 204.975 Q 259.4 204.975 258.882 204.796 Q 258.364 204.618 258.04 204.294 Q 257.716 203.97 257.716 203.517 Q 257.716 203.274 257.837 203.055 Q 257.959 202.836 258.234 202.836 Q 258.38 202.836 258.542 202.917 Q 258.833 203.079 259.287 203.217 Q 259.741 203.355 260.243 203.355 Q 260.81 203.355 261.247 203.193 Q 261.685 203.031 261.685 202.739 Q 261.685 202.512 261.352 202.415 Q 261.02 202.318 260.243 202.204 Q 259.708 202.107 259.206 201.978 Q 258.704 201.848 258.38 201.532 Q 258.056 201.216 258.056 200.601 Q 258.056 200.001 258.388 199.442 Q 258.72 198.883 259.384 198.511 Q 260.048 198.138 261.004 198.138 Q 261.506 198.138 261.976 198.252 Q 262.446 198.365 262.754 198.592 Q 263.062 198.819 263.062 199.159 Q 263.062 199.45 262.859 199.693 Q 262.657 199.936 262.389 200.09 Q 262.122 200.244 261.944 200.244 Q 261.814 200.244 261.636 200.066 Q 261.361 199.839 261.028 199.75 Q 260.696 199.661 260.372 199.661 Q 259.886 199.661 259.587 199.807 Q 259.287 199.953 259.287 200.179 Q 259.287 200.39 259.538 200.52 Q 259.789 200.649 260.162 200.706 Q 260.534 200.763 260.875 200.811 Q 261.814 200.941 262.365 201.257 Q 262.916 201.573 262.916 202.366 Q 262.916 202.982 262.567 203.59 Q 262.219 204.197 261.563 204.586 Q 260.907 204.975 260 204.975 Z" transform="matrix(5.71404, 0.000048, -0.000089, 10.308187, -1117.621582, -1803.676514)" style="fill: rgb(255, 3, 3); fill-rule: evenodd; paint-order: fill; text-transform: capitalize; white-space: pre;"/>
  <path d="M 266.852 204.975 Q 265.621 204.975 264.933 204.27 Q 264.244 203.565 264.244 202.302 Q 264.244 201.151 264.746 200.212 Q 265.249 199.272 266.099 198.713 Q 266.95 198.154 267.97 198.154 Q 268.942 198.154 269.525 198.632 Q 270.109 199.11 270.109 199.904 Q 270.109 200.536 269.72 201.07 Q 269.331 201.605 268.683 201.921 Q 268.035 202.237 267.241 202.237 Q 266.269 202.237 265.654 201.799 Q 265.67 202.545 266.164 202.998 Q 266.658 203.452 267.436 203.452 Q 267.905 203.452 268.4 203.282 Q 268.894 203.112 269.25 202.82 Q 269.477 202.626 269.671 202.626 Q 269.833 202.626 269.939 202.731 Q 270.044 202.836 270.044 202.998 Q 270.044 203.355 269.428 203.938 Q 268.343 204.975 266.852 204.975 Z M 267.095 201.168 Q 267.679 201.168 268.067 200.925 Q 268.456 200.682 268.456 200.309 Q 268.456 200.001 268.197 199.831 Q 267.938 199.661 267.484 199.661 Q 266.885 199.661 266.439 199.977 Q 265.994 200.293 265.799 200.86 Q 266.026 201.006 266.383 201.087 Q 266.739 201.168 267.095 201.168 Z" transform="matrix(5.71404, 0.000048, -0.000089, 10.308187, -1117.621582, -1803.676514)" style="fill: rgb(255, 3, 3); fill-rule: evenodd; paint-order: fill; text-transform: capitalize; white-space: pre;"/>
  <path style="fill: rgb(51, 51, 51); white-space: pre;"/>
  <path style="fill: rgb(51, 51, 51); white-space: pre;"/>
  <path style="fill: rgb(51, 51, 51); white-space: pre;"/>
  <path style="fill: rgb(51, 51, 51); white-space: pre;"/>
  <path d="M 202.233 204.942 Q 201.796 204.942 201.683 204.748 Q 201.569 204.553 201.634 204.197 Q 201.877 202.998 202.055 201.589 Q 202.233 200.179 202.233 198.754 Q 202.233 197.782 202.16 197.02 Q 202.088 196.259 201.683 195.595 Q 201.618 195.498 201.577 195.409 Q 201.537 195.319 201.537 195.255 Q 201.537 195.044 201.772 194.842 Q 202.007 194.639 202.331 194.493 Q 202.655 194.347 202.946 194.347 Q 203.335 194.347 203.505 194.607 Q 203.675 194.866 203.708 195.247 Q 203.74 195.627 203.74 196.016 Q 203.74 196.405 203.699 196.883 Q 203.659 197.361 203.61 197.928 Q 203.529 198.673 203.448 199.556 Q 203.367 200.439 203.367 201.394 Q 203.367 202.48 203.448 203.168 Q 203.529 203.857 203.562 204.067 Q 203.61 204.343 203.4 204.537 Q 203.189 204.732 202.865 204.837 Q 202.541 204.942 202.233 204.942 Z M 208.406 204.91 Q 207.758 204.91 207.166 204.586 Q 206.575 204.262 206.057 203.743 Q 205.538 203.225 205.125 202.609 Q 204.712 201.994 204.412 201.394 Q 204.113 200.795 203.967 200.341 Q 203.821 199.904 203.821 199.58 Q 203.821 199.224 204.08 198.721 Q 204.291 198.333 204.696 197.782 Q 205.101 197.231 205.627 196.632 Q 206.154 196.032 206.729 195.514 Q 207.304 194.995 207.887 194.671 Q 208.47 194.347 208.973 194.347 Q 209.426 194.347 209.629 194.615 Q 209.831 194.882 209.831 195.222 Q 209.831 195.498 209.718 195.805 Q 209.604 196.113 209.41 196.324 Q 209.216 196.534 208.956 196.534 Q 208.794 196.534 208.657 196.494 Q 208.519 196.453 208.308 196.453 Q 208.098 196.453 207.814 196.534 Q 207.531 196.615 207.191 196.842 Q 206.915 197.037 206.51 197.417 Q 206.105 197.798 205.684 198.284 Q 205.263 198.77 204.906 199.321 Q 205.133 199.872 205.522 200.431 Q 205.911 200.989 206.332 201.475 Q 207.093 202.35 207.798 202.755 Q 208.503 203.16 209.523 203.16 Q 209.734 203.16 209.807 203.257 Q 209.88 203.355 209.88 203.565 Q 209.88 204.035 209.531 204.472 Q 209.183 204.91 208.406 204.91 Z" transform="matrix(5.71404, 0.000048, -0.000089, 10.308187, -1120.274658, -1804.406494)" style="fill: url(#pattern-0-0); fill-rule: evenodd; paint-order: fill; text-transform: capitalize; white-space: pre;"/>
  <path d="M 213.07 204.975 Q 211.953 204.975 211.28 204.367 Q 210.608 203.76 210.608 202.577 Q 210.608 202.026 210.762 201.508 Q 210.916 200.989 211.175 200.536 Q 210.916 200.698 210.786 200.698 Q 210.592 200.698 210.519 200.479 Q 210.446 200.26 210.446 200.05 Q 210.446 199.677 210.6 199.459 Q 210.754 199.24 210.9 199.126 Q 211.24 198.835 211.969 198.487 Q 212.698 198.138 213.718 198.138 Q 215.112 198.138 215.881 198.916 Q 216.651 199.693 216.651 201.087 Q 216.651 202.172 216.197 203.055 Q 215.743 203.938 214.941 204.456 Q 214.14 204.975 213.07 204.975 Z M 213.573 203.322 Q 214.383 203.322 214.941 202.812 Q 215.5 202.302 215.5 201.459 Q 215.5 200.584 214.933 200.212 Q 214.366 199.839 213.621 199.839 Q 213.281 199.839 213.006 199.904 Q 212.73 199.969 212.487 200.066 Q 212.26 200.39 212.082 200.795 Q 211.904 201.2 211.904 201.686 Q 211.904 202.496 212.39 202.909 Q 212.876 203.322 213.573 203.322 Z" transform="matrix(5.71404, 0.000048, -0.000089, 10.308187, -1120.274658, -1804.406494)" style="fill: url(#pattern-0-0); fill-rule: evenodd; paint-order: fill; text-transform: capitalize; white-space: pre;"/>
  <path d="M 220.457 204.975 Q 219.34 204.975 218.667 204.367 Q 217.995 203.76 217.995 202.577 Q 217.995 202.026 218.149 201.508 Q 218.303 200.989 218.562 200.536 Q 218.303 200.698 218.173 200.698 Q 217.979 200.698 217.906 200.479 Q 217.833 200.26 217.833 200.05 Q 217.833 199.677 217.987 199.459 Q 218.141 199.24 218.287 199.126 Q 218.627 198.835 219.356 198.487 Q 220.085 198.138 221.105 198.138 Q 222.499 198.138 223.268 198.916 Q 224.038 199.693 224.038 201.087 Q 224.038 202.172 223.584 203.055 Q 223.13 203.938 222.328 204.456 Q 221.527 204.975 220.457 204.975 Z M 220.96 203.322 Q 221.77 203.322 222.328 202.812 Q 222.887 202.302 222.887 201.459 Q 222.887 200.584 222.32 200.212 Q 221.753 199.839 221.008 199.839 Q 220.668 199.839 220.393 199.904 Q 220.117 199.969 219.874 200.066 Q 219.647 200.39 219.469 200.795 Q 219.291 201.2 219.291 201.686 Q 219.291 202.496 219.777 202.909 Q 220.263 203.322 220.96 203.322 Z" transform="matrix(5.71404, 0.000048, -0.000089, 10.308187, -1120.274658, -1804.406494)" style="fill: url(#pattern-0-0); fill-rule: evenodd; paint-order: fill; text-transform: capitalize; white-space: pre;"/>
  <path d="M 226.159 204.942 Q 225.722 204.942 225.609 204.748 Q 225.495 204.553 225.56 204.197 Q 225.803 202.998 225.981 201.589 Q 226.159 200.179 226.159 198.754 Q 226.159 197.782 226.087 197.02 Q 226.014 196.259 225.609 195.595 Q 225.544 195.498 225.503 195.409 Q 225.463 195.319 225.463 195.255 Q 225.463 195.044 225.698 194.842 Q 225.933 194.639 226.257 194.493 Q 226.581 194.347 226.872 194.347 Q 227.261 194.347 227.431 194.607 Q 227.601 194.866 227.634 195.247 Q 227.666 195.627 227.666 196.016 Q 227.666 196.405 227.626 196.883 Q 227.585 197.361 227.536 197.928 Q 227.455 198.673 227.374 199.556 Q 227.293 200.439 227.293 201.394 Q 227.293 202.48 227.374 203.168 Q 227.455 203.857 227.488 204.067 Q 227.536 204.343 227.326 204.537 Q 227.115 204.732 226.791 204.837 Q 226.467 204.942 226.159 204.942 Z M 232.332 204.91 Q 231.684 204.91 231.092 204.586 Q 230.501 204.262 229.983 203.743 Q 229.464 203.225 229.051 202.609 Q 228.638 201.994 228.338 201.394 Q 228.039 200.795 227.893 200.341 Q 227.747 199.904 227.747 199.58 Q 227.747 199.224 228.006 198.721 Q 228.217 198.333 228.622 197.782 Q 229.027 197.231 229.553 196.632 Q 230.08 196.032 230.655 195.514 Q 231.23 194.995 231.813 194.671 Q 232.396 194.347 232.899 194.347 Q 233.352 194.347 233.555 194.615 Q 233.757 194.882 233.757 195.222 Q 233.757 195.498 233.644 195.805 Q 233.53 196.113 233.336 196.324 Q 233.142 196.534 232.882 196.534 Q 232.72 196.534 232.583 196.494 Q 232.445 196.453 232.234 196.453 Q 232.024 196.453 231.74 196.534 Q 231.457 196.615 231.117 196.842 Q 230.841 197.037 230.436 197.417 Q 230.031 197.798 229.61 198.284 Q 229.189 198.77 228.832 199.321 Q 229.059 199.872 229.448 200.431 Q 229.837 200.989 230.258 201.475 Q 231.019 202.35 231.724 202.755 Q 232.429 203.16 233.449 203.16 Q 233.66 203.16 233.733 203.257 Q 233.806 203.355 233.806 203.565 Q 233.806 204.035 233.458 204.472 Q 233.109 204.91 232.332 204.91 Z" transform="matrix(5.71404, 0.000048, -0.000089, 10.308187, -1120.274658, -1804.406494)" style="fill: url(#pattern-0-0); fill-rule: evenodd; paint-order: fill; text-transform: capitalize; white-space: pre;"/>
  <path d="M 235.652 196.713 Q 235.199 196.696 234.923 196.437 Q 234.648 196.178 234.648 195.708 Q 234.664 195.206 234.988 194.89 Q 235.312 194.574 235.814 194.59 Q 236.284 194.607 236.551 194.866 Q 236.819 195.125 236.803 195.595 Q 236.786 196.081 236.479 196.397 Q 236.171 196.713 235.652 196.713 Z M 235.669 204.926 Q 235.183 204.926 234.907 204.659 Q 234.632 204.391 234.632 203.743 Q 234.632 203.371 234.705 203.014 Q 234.778 202.658 234.875 202.318 Q 234.988 201.961 235.061 201.589 Q 235.134 201.216 235.134 200.795 Q 235.134 200.503 235.053 200.236 Q 234.972 199.969 234.697 199.839 Q 234.486 199.726 234.332 199.604 Q 234.178 199.483 234.178 199.288 Q 234.178 199.062 234.389 198.802 Q 234.599 198.543 234.948 198.357 Q 235.296 198.171 235.669 198.171 Q 236.074 198.171 236.26 198.381 Q 236.446 198.592 236.511 198.916 Q 236.576 199.24 236.576 199.58 Q 236.576 200.098 236.495 200.593 Q 236.414 201.087 236.333 201.508 Q 236.268 201.816 236.236 202.075 Q 236.203 202.334 236.203 202.561 Q 236.203 202.966 236.398 203.168 Q 236.592 203.371 236.948 203.549 Q 237.094 203.63 237.094 203.792 Q 237.094 203.922 236.965 204.197 Q 236.835 204.472 236.519 204.699 Q 236.203 204.926 235.669 204.926 Z" transform="matrix(5.71404, 0.000048, -0.000089, 10.308187, -1120.274658, -1804.406494)" style="fill: url(#pattern-0-0); fill-rule: evenodd; paint-order: fill; text-transform: capitalize; white-space: pre;"/>
  <path d="M 240.594 204.991 Q 240.156 204.991 239.84 204.724 Q 239.524 204.456 239.46 203.727 Q 239.427 203.176 239.322 202.512 Q 239.217 201.848 239.055 201.249 Q 238.893 200.649 238.682 200.309 Q 238.569 200.131 238.431 200.042 Q 238.293 199.953 238.018 199.92 Q 237.84 199.904 237.775 199.807 Q 237.71 199.71 237.71 199.499 Q 237.71 198.835 238.074 198.519 Q 238.439 198.203 238.909 198.203 Q 239.395 198.203 239.719 198.519 Q 240.043 198.835 240.221 199.353 Q 240.399 199.872 240.472 200.495 Q 240.545 201.119 240.545 201.751 Q 240.545 202.01 240.537 202.294 Q 240.529 202.577 240.529 202.771 Q 240.529 202.95 240.602 203.047 Q 240.675 203.144 240.885 203.144 Q 241.144 203.144 241.485 202.99 Q 241.825 202.836 242.157 202.545 Q 242.489 202.253 242.708 201.856 Q 242.926 201.459 242.926 200.973 Q 242.926 200.698 242.837 200.39 Q 242.748 200.082 242.554 199.872 Q 242.359 199.661 242.27 199.54 Q 242.181 199.418 242.181 199.256 Q 242.181 198.964 242.448 198.721 Q 242.716 198.478 243.08 198.333 Q 243.445 198.187 243.72 198.187 Q 244.19 198.187 244.32 198.576 Q 244.449 198.964 244.449 199.434 Q 244.449 200.325 244.125 201.297 Q 243.801 202.269 243.25 203.112 Q 242.7 203.954 242.011 204.472 Q 241.323 204.991 240.594 204.991 Z" transform="matrix(5.71404, 0.000048, -0.000089, 10.308187, -1120.274658, -1804.406494)" style="fill: url(#pattern-0-0); fill-rule: evenodd; paint-order: fill; text-transform: capitalize; white-space: pre;"/>
  <path d="M 248.013 204.975 Q 246.782 204.975 246.093 204.27 Q 245.405 203.565 245.405 202.302 Q 245.405 201.151 245.907 200.212 Q 246.409 199.272 247.26 198.713 Q 248.11 198.154 249.131 198.154 Q 250.103 198.154 250.686 198.632 Q 251.269 199.11 251.269 199.904 Q 251.269 200.536 250.88 201.07 Q 250.491 201.605 249.843 201.921 Q 249.195 202.237 248.402 202.237 Q 247.43 202.237 246.814 201.799 Q 246.83 202.545 247.324 202.998 Q 247.818 203.452 248.596 203.452 Q 249.066 203.452 249.56 203.282 Q 250.054 203.112 250.41 202.82 Q 250.637 202.626 250.832 202.626 Q 250.994 202.626 251.099 202.731 Q 251.204 202.836 251.204 202.998 Q 251.204 203.355 250.589 203.938 Q 249.503 204.975 248.013 204.975 Z M 248.256 201.168 Q 248.839 201.168 249.228 200.925 Q 249.617 200.682 249.617 200.309 Q 249.617 200.001 249.357 199.831 Q 249.098 199.661 248.645 199.661 Q 248.045 199.661 247.6 199.977 Q 247.154 200.293 246.96 200.86 Q 247.187 201.006 247.543 201.087 Q 247.899 201.168 248.256 201.168 Z" transform="matrix(5.71404, 0.000048, -0.000089, 10.308187, -1120.274658, -1804.406494)" style="fill: url(#pattern-0-0); fill-rule: evenodd; paint-order: fill; text-transform: capitalize; white-space: pre;"/>
  <path d="M 253.488 204.942 Q 253.229 204.942 253.075 204.853 Q 252.921 204.764 252.97 204.553 Q 253.148 203.857 253.269 203.136 Q 253.391 202.415 253.391 201.751 Q 253.391 200.892 253.286 200.495 Q 253.18 200.098 253.002 199.945 Q 252.824 199.791 252.565 199.71 Q 252.451 199.661 252.362 199.58 Q 252.273 199.499 252.273 199.353 Q 252.273 199.126 252.451 198.851 Q 252.63 198.576 252.954 198.373 Q 253.278 198.171 253.699 198.171 Q 254.25 198.171 254.468 198.551 Q 254.687 198.932 254.687 199.548 Q 254.979 198.9 255.408 198.519 Q 255.837 198.138 256.485 198.138 Q 256.923 198.138 257.214 198.333 Q 257.506 198.527 257.506 198.964 Q 257.506 199.402 257.222 199.783 Q 256.939 200.163 256.647 200.163 Q 256.599 200.163 256.534 200.147 Q 256.469 200.131 256.42 200.066 Q 256.21 199.807 255.902 199.807 Q 255.432 199.807 255.076 200.422 Q 254.719 201.038 254.687 202.123 Q 254.703 202.528 254.711 202.95 Q 254.719 203.371 254.719 203.565 Q 254.719 204.165 254.387 204.553 Q 254.055 204.942 253.488 204.942 Z" transform="matrix(5.71404, 0.000048, -0.000089, 10.308187, -1120.274658, -1804.406494)" style="fill: url(#pattern-0-0); fill-rule: evenodd; paint-order: fill; text-transform: capitalize; white-space: pre;"/>
  <path d="M 260 204.975 Q 259.4 204.975 258.882 204.796 Q 258.364 204.618 258.04 204.294 Q 257.716 203.97 257.716 203.517 Q 257.716 203.274 257.837 203.055 Q 257.959 202.836 258.234 202.836 Q 258.38 202.836 258.542 202.917 Q 258.833 203.079 259.287 203.217 Q 259.741 203.355 260.243 203.355 Q 260.81 203.355 261.247 203.193 Q 261.685 203.031 261.685 202.739 Q 261.685 202.512 261.352 202.415 Q 261.02 202.318 260.243 202.204 Q 259.708 202.107 259.206 201.978 Q 258.704 201.848 258.38 201.532 Q 258.056 201.216 258.056 200.601 Q 258.056 200.001 258.388 199.442 Q 258.72 198.883 259.384 198.511 Q 260.048 198.138 261.004 198.138 Q 261.506 198.138 261.976 198.252 Q 262.446 198.365 262.754 198.592 Q 263.062 198.819 263.062 199.159 Q 263.062 199.45 262.859 199.693 Q 262.657 199.936 262.389 200.09 Q 262.122 200.244 261.944 200.244 Q 261.814 200.244 261.636 200.066 Q 261.361 199.839 261.028 199.75 Q 260.696 199.661 260.372 199.661 Q 259.886 199.661 259.587 199.807 Q 259.287 199.953 259.287 200.179 Q 259.287 200.39 259.538 200.52 Q 259.789 200.649 260.162 200.706 Q 260.534 200.763 260.875 200.811 Q 261.814 200.941 262.365 201.257 Q 262.916 201.573 262.916 202.366 Q 262.916 202.982 262.567 203.59 Q 262.219 204.197 261.563 204.586 Q 260.907 204.975 260 204.975 Z" transform="matrix(5.71404, 0.000048, -0.000089, 10.308187, -1120.274658, -1804.406494)" style="fill: url(#pattern-0-0); fill-rule: evenodd; paint-order: fill; text-transform: capitalize; white-space: pre;"/>
  <path d="M 266.852 204.975 Q 265.621 204.975 264.933 204.27 Q 264.244 203.565 264.244 202.302 Q 264.244 201.151 264.746 200.212 Q 265.249 199.272 266.099 198.713 Q 266.95 198.154 267.97 198.154 Q 268.942 198.154 269.525 198.632 Q 270.109 199.11 270.109 199.904 Q 270.109 200.536 269.72 201.07 Q 269.331 201.605 268.683 201.921 Q 268.035 202.237 267.241 202.237 Q 266.269 202.237 265.654 201.799 Q 265.67 202.545 266.164 202.998 Q 266.658 203.452 267.436 203.452 Q 267.905 203.452 268.4 203.282 Q 268.894 203.112 269.25 202.82 Q 269.477 202.626 269.671 202.626 Q 269.833 202.626 269.939 202.731 Q 270.044 202.836 270.044 202.998 Q 270.044 203.355 269.428 203.938 Q 268.343 204.975 266.852 204.975 Z M 267.095 201.168 Q 267.679 201.168 268.067 200.925 Q 268.456 200.682 268.456 200.309 Q 268.456 200.001 268.197 199.831 Q 267.938 199.661 267.484 199.661 Q 266.885 199.661 266.439 199.977 Q 265.994 200.293 265.799 200.86 Q 266.026 201.006 266.383 201.087 Q 266.739 201.168 267.095 201.168 Z" transform="matrix(5.71404, 0.000048, -0.000089, 10.308187, -1120.274658, -1804.406494)" style="fill: url(#pattern-0-0); fill-rule: evenodd; paint-order: fill; text-transform: capitalize; white-space: pre;"/>
  <text style="fill: url(#pattern-1); fill-rule: evenodd; font-family: &quot;Akaya Telivigala&quot;; font-size: 16.2px; font-weight: 700; paint-order: fill; text-transform: capitalize; white-space: pre;" transform="matrix(5.71404, 0.000048, -0.000089, 10.308187, -1095.959839, -1952.09375)"><tspan x="200.743" y="204.764">  </tspan></text>
</svg>